<?xml version="1.0" standalone="no"?>
<!DOCTYPE svg PUBLIC "-//W3C//DTD SVG 20010904//EN"
 "http://www.w3.org/TR/2001/REC-SVG-20010904/DTD/svg10.dtd">
<svg version="1.0" xmlns="http://www.w3.org/2000/svg"
 width="512.000000pt" height="512.000000pt" viewBox="0 0 512.000000 512.000000"
 preserveAspectRatio="xMidYMid meet">
<metadata>
Created by potrace 1.14, written by Peter Selinger 2001-2017
</metadata>
<g transform="translate(0.000000,512.000000) scale(0.100000,-0.100000)"
fill="#000000" stroke="none">
<path d="M1843 4635 c-44 -19 -56 -47 -57 -142 -1 -51 -7 -88 -14 -95 -8 -8
-44 -13 -95 -13 -150 -2 -158 -17 -156 -296 1 -137 -2 -204 -10 -213 -8 -10
-41 -15 -101 -18 -82 -3 -92 -5 -117 -31 l-28 -27 -3 -220 c-3 -220 -3 -220
-27 -236 -18 -11 -38 -14 -77 -10 -65 7 -114 -9 -142 -47 -20 -28 -21 -40 -22
-373 0 -247 -4 -348 -12 -356 -7 -7 -39 -11 -79 -10 -83 3 -126 -11 -150 -46
-16 -24 -18 -51 -19 -241 0 -253 5 -241 -116 -241 -71 0 -80 -2 -110 -29 -30
-27 -32 -32 -36 -119 -2 -51 -9 -96 -16 -101 -6 -5 -50 -11 -98 -12 -80 -4
-90 -6 -115 -32 -25 -25 -28 -35 -33 -119 -6 -114 -12 -119 -131 -111 l-79 6
0 -187 0 -186 114 0 c63 0 126 4 140 10 44 16 61 55 61 140 0 103 7 110 102
110 127 0 163 37 163 168 0 50 4 73 15 82 9 7 48 13 93 14 126 3 152 30 152
161 0 94 12 105 117 103 51 -1 78 3 97 15 48 32 51 47 51 275 0 177 3 215 15
222 8 5 47 10 85 10 89 0 135 21 152 70 9 25 12 127 11 362 -1 239 2 331 11
342 8 10 39 15 101 18 82 3 92 5 117 31 l28 27 3 219 c3 180 6 222 18 232 9 7
47 13 93 14 86 1 125 18 141 61 6 14 10 117 10 229 0 242 1 245 100 236 48 -5
60 -27 60 -110 0 -125 31 -155 154 -153 96 2 106 -8 106 -107 0 -127 39 -163
171 -158 78 3 89 -9 89 -95 0 -89 19 -134 64 -153 44 -19 454 -22 505 -4 46
16 65 59 63 145 -2 100 5 107 109 109 129 2 152 24 155 155 3 104 9 110 108
108 126 -2 156 31 156 167 0 86 10 98 77 98 77 0 80 -9 75 -225 -4 -204 3
-246 51 -282 23 -17 44 -21 109 -22 113 -1 109 7 107 -239 -2 -219 3 -245 52
-271 17 -8 58 -14 103 -14 54 0 79 -4 90 -16 14 -14 16 -95 16 -747 0 -708 1
-733 20 -764 23 -38 71 -54 153 -50 90 3 90 4 88 -230 -1 -172 1 -203 16 -233
28 -55 47 -60 251 -60 l182 0 0 179 0 179 -30 7 c-41 9 -50 31 -50 119 0 69
-2 78 -29 108 -28 32 -32 33 -118 37 -48 1 -94 8 -100 13 -10 8 -13 168 -13
740 0 784 0 781 -51 809 -13 6 -60 13 -106 13 -50 1 -88 7 -95 14 -9 9 -11 66
-10 215 4 276 -8 297 -159 297 -58 0 -80 4 -90 16 -10 12 -13 66 -14 224 0
196 -1 210 -21 237 -28 38 -77 54 -142 47 -86 -9 -99 5 -103 115 -4 83 -6 93
-31 118 -26 26 -34 28 -131 31 -171 7 -209 -24 -205 -167 2 -46 -2 -75 -10
-83 -8 -8 -43 -13 -95 -13 -45 -1 -92 -7 -104 -13 -37 -20 -53 -64 -53 -144 0
-40 -5 -80 -10 -88 -7 -11 -35 -16 -105 -20 -129 -8 -137 -16 -145 -145 -4
-70 -9 -98 -20 -105 -21 -13 -356 -13 -381 0 -16 9 -19 22 -19 86 0 87 -18
135 -56 153 -14 6 -58 11 -98 11 -102 0 -110 7 -111 111 -2 128 -29 153 -163
154 -93 0 -103 11 -100 106 3 130 -31 159 -184 159 -56 -1 -106 -6 -125 -15z"/>
<path d="M2140 3070 c-24 -5 -52 -18 -62 -28 -42 -42 -47 -245 -7 -296 29 -37
79 -49 183 -44 139 6 158 26 164 168 5 106 -9 157 -50 184 -29 19 -167 28
-228 16z"/>
<path d="M3190 3070 c-24 -5 -52 -18 -62 -28 -26 -25 -41 -123 -33 -206 12
-116 61 -145 230 -134 122 8 145 39 145 191 0 87 -16 138 -52 161 -29 19 -167
28 -228 16z"/>
<path d="M2370 2532 c-47 -23 -60 -53 -60 -143 0 -97 -7 -104 -110 -104 -129
-1 -153 -30 -153 -185 0 -153 25 -185 146 -182 106 2 117 -8 117 -106 0 -132
36 -162 190 -161 144 1 180 33 180 166 0 86 12 103 74 103 68 0 81 -16 81
-102 1 -82 15 -127 48 -148 33 -21 203 -26 249 -7 56 24 72 56 70 143 -2 102
10 114 112 112 128 -3 161 40 154 202 -6 137 -25 158 -150 168 -90 6 -153 -5
-186 -33 -25 -22 -27 -30 -30 -112 -5 -107 -15 -123 -82 -123 -79 0 -80 4 -80
241 0 227 -4 243 -60 271 -30 16 -66 18 -255 18 -189 0 -225 -2 -255 -18z
m194 -375 c23 -28 17 -104 -10 -124 -28 -21 -101 -16 -124 7 -24 24 -27 86 -5
117 27 38 106 38 139 0z"/>
</g>
</svg>
